<?xml version="1.0" encoding="UTF-8" standalone="no"?>
<svg width="41px" height="30px" viewBox="0 0 41 30" version="1.1" xmlns="http://www.w3.org/2000/svg" xmlns:xlink="http://www.w3.org/1999/xlink">
    <!-- Generator: Sketch 41.2 (35397) - http://www.bohemiancoding.com/sketch -->
    <title>Combined Shape</title>
    <desc>Created with Sketch.</desc>
    <defs></defs>
    <g id="Symbols" stroke="none" stroke-width="1" fill="none" fill-rule="evenodd">
        <g id="Card-Background" transform="translate(-130.000000, -420.000000)" fill="#FFFFFF">
            <path d="M143.484732,432.899684 C143.02443,432.440472 142.313056,432.440472 141.8946,432.899684 L138.212191,436.573381 C138.1285,435.947182 138.044809,435.320984 138.044809,434.653039 C138.044809,427.806605 143.610268,422.254314 150.47294,422.254314 C152.439263,422.254314 154.322313,422.713526 156.080245,423.590203 C156.623819,423.882429 157.335612,423.63195 157.586685,423.089245 C157.879186,422.54654 157.628531,421.836848 157.084538,421.586369 C155.034106,420.542705 152.816291,420 150.47294,420 C142.396747,420 135.785149,426.554208 135.785149,434.653039 C135.785149,435.404477 135.826994,436.155915 135.952531,436.907353 L131.935357,432.899684 C131.475056,432.440472 130.763681,432.440472 130.345226,432.899684 C129.884925,433.358896 129.884925,434.068587 130.345226,434.486053 L136.119913,440.247077 C136.329141,440.45581 136.62206,440.581049 136.914979,440.581049 C137.207898,440.581049 137.500817,440.45581 137.710044,440.247077 L143.484732,434.486053 C143.903187,434.026841 143.903187,433.31715 143.484732,432.899684 Z M169.886728,435.521289 L164.148071,429.763185 C163.68685,429.304206 162.974702,429.304206 162.555792,429.763185 L156.774825,435.521289 C156.314442,435.980268 156.314442,436.6896 156.774825,437.106854 C157.236045,437.565833 157.947774,437.565833 158.366685,437.106854 L162.053518,433.43502 C162.136881,434.0609 162.220663,434.686781 162.220663,435.354388 C162.220663,442.197352 156.649151,447.746829 149.779016,447.746829 C147.810136,447.746829 145.925038,447.28785 144.166033,446.412034 C143.62103,446.119539 142.909301,446.369891 142.657535,446.912321 C142.364298,447.455168 142.615644,448.164083 143.160228,448.414435 C145.213309,449.45757 147.475008,450 149.821326,450 C157.905883,450 164.524672,443.449114 164.524672,435.354388 C164.524672,434.603331 164.4832,433.852273 164.357526,433.101216 L168.37865,437.106854 C168.588105,437.315481 168.881762,437.440657 169.174999,437.440657 C169.467818,437.440657 169.761055,437.315481 169.97051,437.106854 C170.347949,436.6896 170.347949,435.980268 169.886728,435.521289 Z" id="Combined-Shape"></path>
        </g>
    </g>
</svg>