<svg id="Layer_1" data-name="Layer 1" xmlns="http://www.w3.org/2000/svg" viewBox="0 0 205 150"><title>Icon 004</title><path d="M90.5,40.93h0L43.93,25.38l-.73-.25a17.41,17.41,0,0,0-17,29.08L51.58,79.91a13.11,13.11,0,0,0,19.43,0L93.46,56.58l0,0L94,56A9.67,9.67,0,0,0,95.37,54a9.57,9.57,0,0,0-4.87-13Zm-21,37.63a11.11,11.11,0,0,1-15.77.72L27.61,52.8a15.37,15.37,0,0,1-3.44-5.24l26.93,4.21a11.78,11.78,0,1,0,23,3.6l15.42,2.41ZM67,54.26a4.78,4.78,0,1,1-9.43,1.1,4.72,4.72,0,0,1,.7-2.46Zm-4.64,7.88A6.64,6.64,0,0,0,69,54.58l3,.48c0,.1,0,.2,0,.3a9.78,9.78,0,1,1-19-3.27l3,.48a6.72,6.72,0,0,0-.62,2.79A6.79,6.79,0,0,0,62.32,62.14Zm31.26-9.07a7.61,7.61,0,0,1-1,1.58L91.21,56,23.51,45.43a15.41,15.41,0,0,1,19-18.4L89.87,42.84a7.57,7.57,0,0,1,3.71,10.23Z"/><path d="M169.38,24.49a17.46,17.46,0,0,0-4.71.64l-.89.25v0L117.38,40.94h0A9.56,9.56,0,0,0,113.87,56l.51.58,0,0L136.85,79.9a13.11,13.11,0,0,0,19.45,0l25.39-25.69a17.41,17.41,0,0,0-12.3-29.73Zm10.89,28.32L154.1,79.28a11.11,11.11,0,0,1-15.79-.74l-20-20.75,15.42-2.41a11.78,11.78,0,1,0,23-3.6l26.93-4.21A15.38,15.38,0,0,1,180.26,52.81Zm-30.62.08a4.72,4.72,0,0,1,.7,2.46,4.78,4.78,0,1,1-9.43-1.1Zm-4.09,9.25a6.79,6.79,0,0,0,6.78-6.78,6.72,6.72,0,0,0-.62-2.79l3-.48a9.78,9.78,0,1,1-19,3.27c0-.1,0-.2,0-.3l3-.48a6.64,6.64,0,0,0,6.72,7.56Zm38.81-16.71L116.66,56l-1.31-1.36h0a7.56,7.56,0,0,1-1-1.58,7.48,7.48,0,0,1-.77-3.32A7.56,7.56,0,0,1,118,42.84L165.26,27l.06,0a15.38,15.38,0,0,1,19.05,18.4Z"/><path d="M196.42,5.5a1229.5,1229.5,0,0,0-185,0,5,5,0,0,0-4.58,4.94V124.32a5,5,0,0,0,4.58,4.94c7.58.57,15.46,1.09,23.43,1.54v17.53a1,1,0,0,0,2,0V129.12a10,10,0,0,1,10-10h5a1,1,0,0,0,.54-1.84,14.55,14.55,0,1,1,15.52,0l-.1.09-.1.09a1,1,0,0,0-.14.21l0,.08a1,1,0,0,0-.07.35v0s0,0,0,.07a1,1,0,0,0,0,.21l0,.06.06.12a1,1,0,0,0,.13.19l.09.09a1,1,0,0,0,.2.13l.1.05a1,1,0,0,0,.36.07h5c.32,0,.64,0,1,0l.54.08.37.06c.24,0,.49.11.73.17l.14,0a10,10,0,0,1,3.95,2.22l.07,0a9.94,9.94,0,0,1,3.22,7.32v19.21a1,1,0,0,0,2,0V129.12A11.93,11.93,0,0,0,82,120.81a10,10,0,0,1,8.78-5.32h5a1,1,0,0,0,.54-1.84,14.55,14.55,0,1,1,15.52,0,1,1,0,0,0,.54,1.84h5a10,10,0,0,1,8.78,5.32,11.93,11.93,0,0,0-3.37,8.31v19.21a1,1,0,0,0,2,0V129.12a9.94,9.94,0,0,1,3.22-7.32l.07,0a10,10,0,0,1,3.95-2.22l.14,0c.24-.07.48-.13.73-.17l.37-.06.54-.08c.31,0,.63,0,1,0h5a1,1,0,0,0,.54-1.84,14.55,14.55,0,1,1,15.52,0,1,1,0,0,0,.54,1.84h5a10,10,0,0,1,10,10v19.21a1,1,0,0,0,2,0V130.79c7.86-.44,15.69-1,23.26-1.53a5,5,0,0,0,4.58-4.94V10.44A5,5,0,0,0,196.42,5.5ZM199,124.32a3,3,0,0,1-2.73,2.94c-7.53.57-15.31,1.08-23.13,1.52a12,12,0,0,0-12-11.64h-2a16.55,16.55,0,1,0-22.47,0h-2c-.37,0-.73,0-1.09.06l-.42.05-.62.09-.53.11-.41.11a11.91,11.91,0,0,0-4,1.89,12,12,0,0,0-10.34-6h-2a16.55,16.55,0,1,0-22.47,0h-2a12,12,0,0,0-10.34,6,11.91,11.91,0,0,0-4-1.89l-.41-.11-.53-.11-.62-.09-.42-.05c-.36,0-.72-.06-1.09-.06h-2a16.55,16.55,0,1,0-22.47,0h-2a12,12,0,0,0-12,11.65c-7.92-.45-15.75-1-23.29-1.53a3,3,0,0,1-2.73-2.94V10.44A3,3,0,0,1,11.6,7.5a1227.29,1227.29,0,0,1,184.67,0A3,3,0,0,1,199,10.44Z"/></svg>