<svg id="Layer_1" data-name="Layer 1" xmlns="http://www.w3.org/2000/svg" viewBox="0 0 205 150"><defs><style>.cls-1{fill:#f89cff;}</style></defs><title>Icon 006</title><path class="cls-1" d="M114.74,89.22H90.26a6,6,0,0,0-6,6v16a6,6,0,0,0,6,6h24.49a6,6,0,0,0,6-6v-16A6,6,0,0,0,114.74,89.22Zm-24.49,2h24.49a4,4,0,0,1,4,4v7H86.26v-7A4,4,0,0,1,90.26,91.22Zm24.49,24H90.26a4,4,0,0,1-4-4v-7h32.49v7A4,4,0,0,1,114.74,115.18Z"/><path class="cls-1" d="M77.73,61.72a2,2,0,0,0,0-1.89l-5.35-9.27a2,2,0,0,0-3.46,0l-5.35,9.27a2,2,0,0,0,0,1.89,13,13,0,1,0,14.27,0ZM70.6,51.56l5.28,9.14a12.84,12.84,0,0,0-3.49-1,10.61,10.61,0,0,0-3.58,0,12.85,12.85,0,0,0-3.49,1Zm0,31.93a11,11,0,0,1-5-20.71,2,2,0,0,0,.55-.17,9.91,9.91,0,0,1,2.94-.93,9.84,9.84,0,0,1,3,0,9.92,9.92,0,0,1,2.94.93,2,2,0,0,0,.55.17,11,11,0,0,1-5,20.71Z"/><path class="cls-1" d="M141.54,61.72a2,2,0,0,0,0-1.89l-5.35-9.27a2,2,0,0,0-3.46,0l-5.35,9.27a2,2,0,0,0,0,1.89,13,13,0,1,0,14.27,0ZM134.4,51.56l5.28,9.14a12.86,12.86,0,0,0-3.49-1,10.6,10.6,0,0,0-3.57,0,12.84,12.84,0,0,0-3.49,1Zm0,31.93a11,11,0,0,1-5-20.71,2,2,0,0,0,.55-.17,9.92,9.92,0,0,1,2.94-.93,9.84,9.84,0,0,1,3,0,9.91,9.91,0,0,1,2.94.93,2,2,0,0,0,.55.17,11,11,0,0,1-5,20.71Z"/><path class="cls-1" d="M185.86,82.47a8.05,8.05,0,0,0-7-8v-.26a6.08,6.08,0,0,0-6.07-6.07h-3.07V55.53a21,21,0,0,0-21-21H134.08C134,22.94,130.81,15,125.8,14.21c-3.95-.63-8.15,3.17-11.59,10.31C113,10.44,108.14.29,102.17.29s-10.88,10.15-12,24.23C86.7,17.38,82.5,13.58,78.55,14.21c-5,.79-8.22,8.74-8.28,20.32H56.33a21,21,0,0,0-21,21V68.17H32.25a6.08,6.08,0,0,0-5.8,4.3,8,8,0,0,0-.26,16v2.26a6.08,6.08,0,0,0,6.07,6.07h3.07v13.09a21,21,0,0,0,11.92,18.9c-1.28,1.8-2.56,3.55-3.8,5.18a1,1,0,0,0,.34,1.49,129,129,0,0,0,116.77,0,1,1,0,0,0,.34-1.49c-1.18-1.56-2.4-3.23-3.63-4.94a21,21,0,0,0,12.4-19.14V96.78h3.07a6.08,6.08,0,0,0,6.07-6.07v-.26A8.05,8.05,0,0,0,185.86,82.47Zm-164.71-2a6,6,0,0,1,5-6V86.43A6,6,0,0,1,21.14,80.47ZM78.86,16.18c3.52-.55,7.89,4.56,11.11,13a1,1,0,0,0,1.93-.33c.43-16.43,5.67-26.6,10.27-26.6s9.84,10.17,10.27,26.6a1,1,0,0,0,.83,1,1,1,0,0,0,1.1-.63c3.22-8.47,7.58-13.59,11.11-13,3.87.61,6.53,8.11,6.59,18.35H72.27C72.33,24.29,75,16.8,78.86,16.18ZM32.25,94.78a4.07,4.07,0,0,1-4.07-4.07V74.24a4.07,4.07,0,0,1,4.07-4.07h3.07V94.78ZM158.58,134.2a127,127,0,0,1-112.82,0c1.11-1.48,2.24-3,3.37-4.63a20.85,20.85,0,0,0,7.19,1.3h92.34a20.88,20.88,0,0,0,6.67-1.11C156.44,131.29,157.52,132.79,158.58,134.2Zm9.09-24.33a19,19,0,0,1-12,17.66,1,1,0,0,0-.55.17l-.05.05a18.87,18.87,0,0,1-6.37,1.12H56.33a18.87,18.87,0,0,1-6.86-1.3,1,1,0,0,0-.07-.08,1,1,0,0,0-.56-.16,19,19,0,0,1-11.51-17.45V55.53a19,19,0,0,1,19-19h92.34a19,19,0,0,1,19,19Zm9.14-19.16a4.07,4.07,0,0,1-4.07,4.07h-3.07V70.17h3.07a4.07,4.07,0,0,1,4.07,4.07Zm2-2.28V76.52a6,6,0,0,1,0,11.91Z"/></svg>