<svg id="Layer_1" data-name="Layer 1" xmlns="http://www.w3.org/2000/svg" viewBox="0 0 205 150"><defs><style>.cls-1{fill:#ff9f00;}</style></defs><title>Icon 003</title><path class="cls-1" d="M168.69,85.89a5.45,5.45,0,1,0-5.45-5.45A5.45,5.45,0,0,0,168.69,85.89Zm0-8.89a3.45,3.45,0,1,1-3.45,3.45A3.45,3.45,0,0,1,168.69,77Z"/><path class="cls-1" d="M35.72,75a5.45,5.45,0,1,0,5.45,5.45A5.45,5.45,0,0,0,35.72,75Zm0,8.89a3.45,3.45,0,1,1,3.45-3.45A3.45,3.45,0,0,1,35.72,83.89Z"/><path class="cls-1" d="M101.84,50.39A30.06,30.06,0,1,0,131.9,80.45,30.09,30.09,0,0,0,101.84,50.39Zm0,58.12A28.06,28.06,0,1,1,129.9,80.45,28.09,28.09,0,0,1,101.84,108.51Z"/><path class="cls-1" d="M101.84,61.25A19.19,19.19,0,1,0,121,80.45,19.21,19.21,0,0,0,101.84,61.25Zm0,36.39A17.19,17.19,0,1,1,119,80.45,17.21,17.21,0,0,1,101.84,97.64Z"/><path class="cls-1" d="M23.93,51l-1.21-1.38,3.66-3.2,1.21,1.38a1,1,0,0,0,1.41.09L37,40.82a1,1,0,0,0,.09-1.41L35.93,38l4.13-3.62,1.21,1.38a1,1,0,0,0,1.41.09l8.05-7.05a1,1,0,0,0,.09-1.41L37.34,12a1,1,0,0,0-1.41-.09L27.88,19a1,1,0,0,0-.09,1.41L29,21.78l-4.13,3.62L23.66,24a1,1,0,0,0-1.41-.09L14.2,31a1,1,0,0,0-.09,1.41l1.21,1.38L11.66,37l-1.21-1.38A1,1,0,0,0,9,35.49L1,42.54a1,1,0,0,0-.09,1.41l6.74,7.7,6.74,7.7a1,1,0,0,0,.69.34h.07a1,1,0,0,0,.66-.25l8.05-7.05A1,1,0,0,0,23.93,51ZM36.5,14.1,48.66,28l-6.55,5.73-1.21-1.38,0,0,0,0-9.65-11,0,0,0,0-1.21-1.38Zm-6.18,9.19,8.43,9.62-4.13,3.62L26.19,26.9Zm-7.5,2.8L24,27.46l0,0,0,0,9.65,11,0,0,0,0L35,40,28.43,45.7l-1.21-1.38,0,0,0,0-9.65-11,0,0,0,0-1.21-1.38Zm-6.18,9.19,8.43,9.62-3.66,3.2L13,38.47Zm-1.41,22L9.14,50.33,3.05,43.38,9.6,37.65,10.81,39l0,0,0,0,9.65,11,0,0,0,0,1.21,1.38Z"/><path class="cls-1" d="M204,42.54,196,35.49a1,1,0,0,0-1.41.09L193.34,37l-3.66-3.2,1.21-1.38A1,1,0,0,0,190.8,31l-8.05-7.05a1,1,0,0,0-1.41.09l-1.21,1.38L176,21.78l1.21-1.38a1,1,0,0,0-.09-1.41l-8.05-7.05a1,1,0,0,0-1.41.09l-13.48,15.4a1,1,0,0,0,.09,1.41l8.05,7.05a1,1,0,0,0,1.41-.09l1.21-1.38L169.07,38l-1.21,1.38a1,1,0,0,0,.09,1.41L176,47.87a1,1,0,0,0,1.41-.09l1.21-1.38,3.66,3.2L181.07,51a1,1,0,0,0,.09,1.41l8.05,7.05a1,1,0,0,0,.66.25h.07a1,1,0,0,0,.69-.34l6.74-7.7,6.74-7.7A1,1,0,0,0,204,42.54Zm-41.13-8.82L156.34,28,168.5,14.1l6.55,5.73-1.21,1.38,0,0,0,0-9.65,11,0,0,0,0Zm3.37-.82,8.43-9.62,4.13,3.61-8.43,9.62Zm10.31,12.8L170,40l1.21-1.38,0,0,0,0,9.65-11,0,0,0,0,1.21-1.38,6.55,5.73-1.21,1.38,0,0,0,0-9.65,11,0,0,0,0Zm3.37-.82,8.43-9.62,3.66,3.2-8.43,9.62Zm9.84,12.39-6.55-5.73,1.21-1.38,0,0,0,0,9.65-11,0,0,0,0,1.21-1.38,6.55,5.73Z"/><path class="cls-1" d="M146.27,32.26a109.64,109.64,0,0,0-88.85,0A97.33,97.33,0,0,0,20.81,60.49a11.82,11.82,0,0,0-2.64,7.42V93a11.82,11.82,0,0,0,2.64,7.42,97.33,97.33,0,0,0,36.61,28.23,109.63,109.63,0,0,0,88.85,0,97.32,97.32,0,0,0,36.61-28.23A11.81,11.81,0,0,0,185.52,93V67.91a11.81,11.81,0,0,0-2.64-7.42A97.32,97.32,0,0,0,146.27,32.26ZM22.37,61.74A95.36,95.36,0,0,1,58.24,34.08a107.64,107.64,0,0,1,87.21,0,95.35,95.35,0,0,1,35.87,27.65,10.24,10.24,0,0,1,1.57,2.75l-35,6.45a47,47,0,0,0-92.11,0l-35-6.45A10.25,10.25,0,0,1,22.37,61.74Zm161.15,6.18V93a9.64,9.64,0,0,1-.12,1.49L148.25,88a46.72,46.72,0,0,0,0-15.08l35.15-6.48A9.65,9.65,0,0,1,183.52,67.91ZM146.86,80.45a45,45,0,1,1-45-45A45.07,45.07,0,0,1,146.86,80.45ZM20.16,93V67.91a9.64,9.64,0,0,1,.12-1.49l35.15,6.48a46.72,46.72,0,0,0,0,15.08L20.28,94.47A9.65,9.65,0,0,1,20.16,93Zm161.15,6.18a95.35,95.35,0,0,1-35.87,27.65,107.63,107.63,0,0,1-87.21,0A95.36,95.36,0,0,1,22.37,99.16a10.25,10.25,0,0,1-1.57-2.75l35-6.45a47,47,0,0,0,92.11,0l35,6.45A10.23,10.23,0,0,1,181.31,99.16Z"/></svg>