<svg id="Layer_1" data-name="Layer 1" xmlns="http://www.w3.org/2000/svg" viewBox="0 0 205 150"><defs><style>.cls-1{fill:#00e4ff;}</style></defs><title>Icon 002</title><path class="cls-1" d="M54.61,94.31H18.38a1,1,0,0,0-1,1v10.13a1,1,0,0,0,1,1H54.61a1,1,0,0,0,1-1V95.31A1,1,0,0,0,54.61,94.31Zm-1,10.13H19.38V96.31H53.61Z"/><path class="cls-1" d="M186.28,94.31H150a1,1,0,0,0-1,1v10.13a1,1,0,0,0,1,1h36.23a1,1,0,0,0,1-1V95.31A1,1,0,0,0,186.28,94.31Zm-1,10.13H151V96.31h34.23Z"/><path class="cls-1" d="M135.5,89.39H69.24a1,1,0,0,0-.93,1.36L76,110.67a1,1,0,0,0,.93.64H127.8a1,1,0,0,0,.93-.64l7.71-19.91a1,1,0,0,0-.93-1.36Zm-8.39,19.91H77.64L70.7,91.39H134Z"/><path class="cls-1" d="M75.05,95.4l3.51,10a1,1,0,0,0,.94.67h5.74a1,1,0,0,0,1-1v-10a1,1,0,0,0-1-1H76a1,1,0,0,0-.94,1.33Zm9.19.67v8h-4l-2.8-8Z"/><path class="cls-1" d="M119,106h5.74a1,1,0,0,0,.94-.67l3.51-10a1,1,0,0,0-.94-1.33H119a1,1,0,0,0-1,1v10A1,1,0,0,0,119,106Zm1-10h6.84l-2.8,8h-4Z"/><path class="cls-1" d="M89.91,106h10.37a1,1,0,0,0,1-1v-10a1,1,0,0,0-1-1H89.91a1,1,0,0,0-1,1v10A1,1,0,0,0,89.91,106Zm1-10h8.37v8H90.91Z"/><path class="cls-1" d="M104,106h10.37a1,1,0,0,0,1-1v-10a1,1,0,0,0-1-1H104a1,1,0,0,0-1,1v10A1,1,0,0,0,104,106Zm1-10h8.37v8H105Z"/><path class="cls-1" d="M199.95,89.49a110.36,110.36,0,0,0-8.85-18.95c-5.41-9.19-14.46-21.1-26.81-25.65a1,1,0,0,0-.35-.06h-.73l-1.1-1.43h15.71a1,1,0,0,0,.89-1.46l-4.09-8a1,1,0,0,0-.89-.54h-19a1,1,0,0,0-.24,0l-18-23.2a1,1,0,0,0-.79-.39H69.27a1,1,0,0,0-.79.39l-18,23.2a1,1,0,0,0-.24,0h-19a1,1,0,0,0-.89.54l-4.09,8a1,1,0,0,0,.89,1.46h15.7l-1.1,1.43H41a1,1,0,0,0-.35.06c-12.35,4.56-21.4,16.46-26.81,25.65A110.45,110.45,0,0,0,5,89.49a1,1,0,0,0-.05.31v26.88a8,8,0,0,0,8,8h3.68v3.1a12,12,0,0,0,24,0v-3.1H164.3v3.1a12,12,0,0,0,24,0v-3.1H192a8,8,0,0,0,8-8V89.81A1,1,0,0,0,199.95,89.49Zm-26.84-54,3.06,6H160.55l-4.61-6Zm-144.33,6,3.06-6H49l-4.61,6Zm9.86,86.4a10,10,0,0,1-20,0v-3.1h20Zm147.67,0a10,10,0,0,1-20,0v-3.1h20ZM198,116.69a6,6,0,0,1-6,6H13a6,6,0,0,1-6-6V90c.86-2.49,12.45-35,34.24-43.14h1a1,1,0,0,0,.79-.39L69.76,11.91h65.41l26.74,34.53a1,1,0,0,0,.79.39h1C185.54,55,197.14,87.49,198,90Z"/><path class="cls-1" d="M48.46,49.31h108a1,1,0,0,0,.8-1.6L134.06,17a1,1,0,0,0-.8-.4H71.68a1,1,0,0,0-.8.4L47.67,47.71a1,1,0,0,0,.8,1.6ZM72.18,18.59h60.58l21.71,28.73h-104Z"/><path class="cls-1" d="M54.61,70.11H28.9a1,1,0,0,0-.88.52L17.5,89.91a1,1,0,0,0,.88,1.48H54.61a1,1,0,0,0,1-1V71.11A1,1,0,0,0,54.61,70.11Zm-1,19.29H20.06l9.43-17.29H53.61Z"/><path class="cls-1" d="M175.76,70.11H150a1,1,0,0,0-1,1V90.39a1,1,0,0,0,1,1h36.23a1,1,0,0,0,.88-1.48L176.64,70.63A1,1,0,0,0,175.76,70.11ZM151,89.39V72.11h24.12l9.43,17.29Z"/><path class="cls-1" d="M86.65,86.21h13.49a1,1,0,0,0,.92-1.38L87.49,52.27a1,1,0,0,0-.92-.62H63.85A1,1,0,0,0,63,53.23L85.83,85.79A1,1,0,0,0,86.65,86.21ZM85.9,53.65,98.63,84.21H87.17L65.78,53.65Z"/><path class="cls-1" d="M141.12,51.65H118.41a1,1,0,0,0-.92.62L103.92,84.83a1,1,0,0,0,.92,1.38h13.49a1,1,0,0,0,.82-.43l22.79-32.56a1,1,0,0,0-.82-1.57ZM117.81,84.21H106.34l12.73-30.56H139.2Z"/></svg>