<svg id="Layer_1" data-name="Layer 1" xmlns="http://www.w3.org/2000/svg" viewBox="0 0 120 195"><defs><style>.cls-1{fill:#fff13f;}</style></defs><title>Icon 005</title><path class="cls-1" d="M87,76.3H83.19v-9h1.65a6,6,0,0,0,6-5.9l5-52a6,6,0,0,0-6-6h-61a6,6,0,0,0-6,6.09l5,51.78a6,6,0,0,0,6,6h2.69v9H32.14A17.47,17.47,0,0,0,14.7,93.75v79.07a17.47,17.47,0,0,0,17.45,17.45H87a17.47,17.47,0,0,0,17.45-17.45V93.75A17.47,17.47,0,0,0,87,76.3Zm-9,0H41.61v-9H78.09Zm2-9h1.11V81.6a.55.55,0,1,1-1.11,0Zm-46.52-2a2.1,2.1,0,0,0,.32-1.1,2.12,2.12,0,0,0-2.12-2.12,2.1,2.1,0,0,0-1.62.78,4.22,4.22,0,0,1-.32-1.62L27.68,39a2.09,2.09,0,0,0-.29-3l-.67-7a2.11,2.11,0,0,0-.4-4.11l-.62-6.43a2.07,2.07,0,0,0,.36,0,2.12,2.12,0,1,0,0-4.25,2.06,2.06,0,0,0-.75.15l-.48-5a4,4,0,0,1,.41-1.72,2.06,2.06,0,0,0,.83.18,2.12,2.12,0,0,0,2.12-2.12,2,2,0,0,0,0-.26,4,4,0,0,1,.68-.07h6.56a2,2,0,0,0,0,.33,2.12,2.12,0,0,0,4.25,0,2,2,0,0,0,0-.33H46.8a2,2,0,0,0,0,.33,2.12,2.12,0,0,0,4.25,0,2,2,0,0,0,0-.33h7.23a2,2,0,0,0,0,.33,2.12,2.12,0,0,0,4.25,0,2,2,0,0,0,0-.33h7.23a2,2,0,0,0,0,.33,2.12,2.12,0,0,0,4.25,0,2,2,0,0,0,0-.33h7.23a2,2,0,0,0,0,.33,2.12,2.12,0,0,0,4.25,0,2,2,0,0,0,0-.33h4.6a4,4,0,0,1,2.74,1.09,2.12,2.12,0,0,0,.75,1,3.76,3.76,0,0,1,.51,1.84l-.51,5.34a2.09,2.09,0,0,0-.3,3.17L90.71,41.94a2.13,2.13,0,1,0-.23,2.37l-.71,7.37a2.06,2.06,0,0,0-.92-.23,2.12,2.12,0,1,0,0,4.25,2.06,2.06,0,0,0,.54-.08l-.55,5.7a4,4,0,0,1-.08.76,2.12,2.12,0,0,0-2,2.12,2.07,2.07,0,0,0,.09.58,4,4,0,0,1-2,.55H79.23a2.12,2.12,0,1,0-3.59,0H67.81a2.12,2.12,0,1,0-3.59,0H56.4a2.12,2.12,0,1,0-3.59,0H45a2.12,2.12,0,1,0-3.59,0H33.82Zm6,2V81.6a.55.55,0,1,1-1.11,0V67.32Zm62.87,105.49A15.46,15.46,0,0,1,87,188.26H32.14A15.46,15.46,0,0,1,16.7,172.81V93.75A15.46,15.46,0,0,1,32.14,78.3h4.37v3.3a2.55,2.55,0,1,0,5.11,0V78.3H78.09v3.3a2.55,2.55,0,1,0,5.11,0V78.3H87a15.46,15.46,0,0,1,15.45,15.45Z"/><path class="cls-1" d="M84,85.63H34.69a11,11,0,0,0-11,11v73.61a11,11,0,0,0,11,11H84a11,11,0,0,0,11-11V96.63A11,11,0,0,0,84,85.63Zm0,93.61H34.69a9,9,0,0,1-9-9V151.42H93v18.82A9,9,0,0,1,84,179.24Zm9-29.82H25.69V96.63a9,9,0,0,1,9-9H84a9,9,0,0,1,9,9Z"/><path class="cls-1" d="M52.73,158.56H34.81a2,2,0,0,0-2,2v10.89a2,2,0,0,0,2,2H52.73a2,2,0,0,0,2-2V160.56A2,2,0,0,0,52.73,158.56ZM34.81,171.45V160.56H52.73v10.89Z"/><path class="cls-1" d="M66.46,161.51A4.49,4.49,0,1,0,71,166,4.5,4.5,0,0,0,66.46,161.51Zm0,7A2.49,2.49,0,1,1,69,166,2.49,2.49,0,0,1,66.46,168.49Z"/><path class="cls-1" d="M79.63,161.51A4.49,4.49,0,1,0,84.12,166,4.5,4.5,0,0,0,79.63,161.51Zm0,7A2.49,2.49,0,1,1,82.12,166,2.49,2.49,0,0,1,79.63,168.49Z"/><path class="cls-1" d="M43.8,135.75a4.49,4.49,0,1,0,4.49,4.49A4.5,4.5,0,0,0,43.8,135.75Zm0,7a2.49,2.49,0,1,1,2.49-2.49A2.49,2.49,0,0,1,43.8,142.74Z"/><path class="cls-1" d="M59.33,135.75a4.49,4.49,0,1,0,4.49,4.49A4.5,4.5,0,0,0,59.33,135.75Zm0,7a2.49,2.49,0,1,1,2.49-2.49A2.49,2.49,0,0,1,59.33,142.74Z"/><path class="cls-1" d="M74.87,135.75a4.49,4.49,0,1,0,4.49,4.49A4.5,4.5,0,0,0,74.87,135.75Zm0,7a2.49,2.49,0,1,1,2.49-2.49A2.49,2.49,0,0,1,74.87,142.74Z"/><path class="cls-1" d="M59.33,131.12A19.33,19.33,0,1,0,40,111.79,19.35,19.35,0,0,0,59.33,131.12Zm0-36.66A17.33,17.33,0,1,1,42,111.79,17.35,17.35,0,0,1,59.33,94.46Z"/><path class="cls-1" d="M59.33,116.28a4.49,4.49,0,1,0-4.49-4.49A4.5,4.5,0,0,0,59.33,116.28Zm0-7a2.49,2.49,0,1,1-2.49,2.49A2.49,2.49,0,0,1,59.33,109.3Z"/><circle class="cls-1" cx="48.89" cy="27.02" r="2.12"/><circle class="cls-1" cx="60.31" cy="48.26" r="2.12"/><circle class="cls-1" cx="43.18" cy="11.09" r="2.12"/><circle class="cls-1" cx="60.31" cy="58.89" r="2.12"/><circle class="cls-1" cx="43.18" cy="32.33" r="2.12"/><circle class="cls-1" cx="60.31" cy="37.64" r="2.12"/><circle class="cls-1" cx="48.89" cy="16.4" r="2.12"/><circle class="cls-1" cx="43.18" cy="42.95" r="2.12"/><circle class="cls-1" cx="43.18" cy="53.57" r="2.12"/><circle class="cls-1" cx="54.6" cy="11.09" r="2.12"/><circle class="cls-1" cx="54.6" cy="53.57" r="2.12"/><circle class="cls-1" cx="71.73" cy="48.26" r="2.12"/><circle class="cls-1" cx="60.31" cy="27.02" r="2.12"/><circle class="cls-1" cx="54.6" cy="21.71" r="2.12"/><circle class="cls-1" cx="54.6" cy="42.95" r="2.12"/><circle class="cls-1" cx="60.31" cy="16.4" r="2.12"/><circle class="cls-1" cx="54.6" cy="32.33" r="2.12"/><circle class="cls-1" cx="37.48" cy="27.02" r="2.12"/><circle class="cls-1" cx="37.48" cy="58.89" r="2.12"/><circle class="cls-1" cx="37.48" cy="48.26" r="2.12"/><circle class="cls-1" cx="37.48" cy="37.64" r="2.12"/><circle class="cls-1" cx="71.73" cy="58.89" r="2.12"/><circle class="cls-1" cx="31.77" cy="53.57" r="2.12"/><circle class="cls-1" cx="48.89" cy="48.26" r="2.12"/><circle class="cls-1" cx="48.89" cy="37.64" r="2.12"/><circle class="cls-1" cx="48.89" cy="58.89" r="2.12"/><circle class="cls-1" cx="31.77" cy="11.09" r="2.12"/><circle class="cls-1" cx="31.77" cy="32.33" r="2.12"/><circle class="cls-1" cx="31.77" cy="21.71" r="2.12"/><circle class="cls-1" cx="37.48" cy="16.4" r="2.12"/><circle class="cls-1" cx="31.77" cy="42.95" r="2.12"/><circle class="cls-1" cx="43.18" cy="21.71" r="2.12"/><circle class="cls-1" cx="83.15" cy="58.89" r="2.12"/><circle class="cls-1" cx="77.44" cy="32.33" r="2.12"/><circle class="cls-1" cx="77.44" cy="42.95" r="2.12"/><circle class="cls-1" cx="77.44" cy="53.57" r="2.12"/><circle class="cls-1" cx="77.44" cy="11.09" r="2.12"/><circle class="cls-1" cx="77.44" cy="21.71" r="2.12"/><circle class="cls-1" cx="66.02" cy="11.09" r="2.12"/><circle class="cls-1" cx="66.02" cy="21.71" r="2.12"/><circle class="cls-1" cx="66.02" cy="53.57" r="2.12"/><circle class="cls-1" cx="71.73" cy="37.64" r="2.12"/><circle class="cls-1" cx="66.02" cy="32.33" r="2.12"/><circle class="cls-1" cx="66.02" cy="42.95" r="2.12"/><circle class="cls-1" cx="71.73" cy="16.4" r="2.12"/><circle class="cls-1" cx="71.73" cy="27.02" r="2.12"/><circle class="cls-1" cx="83.15" cy="16.4" r="2.12"/><circle class="cls-1" cx="83.15" cy="37.64" r="2.12"/><circle class="cls-1" cx="83.15" cy="48.26" r="2.12"/><circle class="cls-1" cx="88.85" cy="11.09" r="2.12"/><circle class="cls-1" cx="83.15" cy="27.02" r="2.12"/><circle class="cls-1" cx="88.85" cy="32.33" r="2.12"/><circle class="cls-1" cx="88.85" cy="21.71" r="2.12"/></svg>