<svg id="Layer_1" data-name="Layer 1" xmlns="http://www.w3.org/2000/svg" viewBox="0 0 120 195"><defs><style>.cls-1{fill:#ff0053;}</style></defs><title>Icon 001</title><path class="cls-1" d="M51.81,55.62a1,1,0,0,0,.44-.1,18.17,18.17,0,0,1,2.57-1,1,1,0,1,0-.6-1.91,20.13,20.13,0,0,0-2.85,1.14,1,1,0,0,0,.44,1.9Z"/><path class="cls-1" d="M60.31,109.79A38.34,38.34,0,1,0,22,71.45,38.39,38.39,0,0,0,60.31,109.79Zm0-74.69A36.34,36.34,0,1,1,24,71.45,36.38,36.38,0,0,1,60.31,35.11Z"/><path class="cls-1" d="M60.31,98.23A26.25,26.25,0,1,0,34.06,72,26.28,26.28,0,0,0,60.31,98.23Zm0-50.5A24.25,24.25,0,1,1,36.06,72,24.28,24.28,0,0,1,60.31,47.73Z"/><path class="cls-1" d="M51.23,72a9.08,9.08,0,1,0,9.08-9.08A9.09,9.09,0,0,0,51.23,72Zm9.08-7.08A7.08,7.08,0,1,1,53.23,72,7.09,7.09,0,0,1,60.31,64.9Z"/><path class="cls-1" d="M60.31,92.3a1,1,0,0,0,0-2A18.32,18.32,0,0,1,48.42,58a1,1,0,1,0-1.3-1.52A20.32,20.32,0,0,0,60.31,92.3Z"/><path class="cls-1" d="M113,15.29H7.62a5,5,0,0,0-5,5v153a5,5,0,0,0,5,5H113a5,5,0,0,0,5-5v-153A5,5,0,0,0,113,15.29Zm-105.38,2H113a3,3,0,0,1,3,3v103H4.62v-103A3,3,0,0,1,7.62,17.29ZM113,176.31H7.62a3,3,0,0,1-3-3v-48H116v48A3,3,0,0,1,113,176.31Z"/><circle class="cls-1" cx="8.93" cy="129.53" r="2.12"/><circle class="cls-1" cx="20.35" cy="129.53" r="2.12"/><circle class="cls-1" cx="31.77" cy="129.53" r="2.12"/><circle class="cls-1" cx="43.18" cy="129.53" r="2.12"/><circle class="cls-1" cx="54.6" cy="129.53" r="2.12"/><circle class="cls-1" cx="66.02" cy="129.53" r="2.12"/><circle class="cls-1" cx="77.44" cy="129.53" r="2.12"/><circle class="cls-1" cx="88.85" cy="129.53" r="2.12"/><circle class="cls-1" cx="100.27" cy="129.53" r="2.12"/><circle class="cls-1" cx="111.69" cy="129.53" r="2.12"/><circle class="cls-1" cx="8.93" cy="140.15" r="2.12"/><circle class="cls-1" cx="20.35" cy="140.15" r="2.12"/><circle class="cls-1" cx="31.77" cy="140.15" r="2.12"/><circle class="cls-1" cx="43.18" cy="140.15" r="2.12"/><circle class="cls-1" cx="54.6" cy="140.15" r="2.12"/><circle class="cls-1" cx="66.02" cy="140.15" r="2.12"/><circle class="cls-1" cx="77.44" cy="140.15" r="2.12"/><circle class="cls-1" cx="88.85" cy="140.15" r="2.12"/><circle class="cls-1" cx="100.27" cy="140.15" r="2.12"/><circle class="cls-1" cx="111.69" cy="140.15" r="2.12"/><circle class="cls-1" cx="8.93" cy="150.77" r="2.12"/><circle class="cls-1" cx="20.35" cy="150.77" r="2.12"/><circle class="cls-1" cx="31.77" cy="150.77" r="2.12"/><circle class="cls-1" cx="43.18" cy="150.77" r="2.12"/><circle class="cls-1" cx="54.6" cy="150.77" r="2.12"/><circle class="cls-1" cx="66.02" cy="150.77" r="2.12"/><circle class="cls-1" cx="77.44" cy="150.77" r="2.12"/><circle class="cls-1" cx="88.85" cy="150.77" r="2.12"/><circle class="cls-1" cx="100.27" cy="150.77" r="2.12"/><circle class="cls-1" cx="111.69" cy="150.77" r="2.12"/><circle class="cls-1" cx="8.93" cy="161.39" r="2.12"/><circle class="cls-1" cx="20.35" cy="161.39" r="2.12"/><circle class="cls-1" cx="31.77" cy="161.39" r="2.12"/><circle class="cls-1" cx="43.18" cy="161.39" r="2.12"/><circle class="cls-1" cx="54.6" cy="161.39" r="2.12"/><circle class="cls-1" cx="66.02" cy="161.39" r="2.12"/><circle class="cls-1" cx="77.44" cy="161.39" r="2.12"/><circle class="cls-1" cx="88.85" cy="161.39" r="2.12"/><circle class="cls-1" cx="100.27" cy="161.39" r="2.12"/><circle class="cls-1" cx="111.69" cy="161.39" r="2.12"/><circle class="cls-1" cx="8.93" cy="172.01" r="2.12"/><circle class="cls-1" cx="20.35" cy="172.01" r="2.12"/><circle class="cls-1" cx="31.77" cy="172.01" r="2.12"/><circle class="cls-1" cx="43.18" cy="172.01" r="2.12"/><circle class="cls-1" cx="54.6" cy="172.01" r="2.12"/><circle class="cls-1" cx="66.02" cy="172.01" r="2.12"/><circle class="cls-1" cx="77.44" cy="172.01" r="2.12"/><circle class="cls-1" cx="88.85" cy="172.01" r="2.12"/><circle class="cls-1" cx="100.27" cy="172.01" r="2.12"/><circle class="cls-1" cx="111.69" cy="172.01" r="2.12"/><circle class="cls-1" cx="14.64" cy="134.84" r="2.12"/><circle class="cls-1" cx="26.06" cy="134.84" r="2.12"/><circle class="cls-1" cx="37.48" cy="134.84" r="2.12"/><circle class="cls-1" cx="48.89" cy="134.84" r="2.12"/><circle class="cls-1" cx="60.31" cy="134.84" r="2.12"/><circle class="cls-1" cx="71.73" cy="134.84" r="2.12"/><circle class="cls-1" cx="83.15" cy="134.84" r="2.12"/><circle class="cls-1" cx="94.56" cy="134.84" r="2.12"/><circle class="cls-1" cx="105.98" cy="134.84" r="2.12"/><circle class="cls-1" cx="14.64" cy="145.46" r="2.12"/><circle class="cls-1" cx="26.06" cy="145.46" r="2.12"/><circle class="cls-1" cx="37.48" cy="145.46" r="2.12"/><circle class="cls-1" cx="48.89" cy="145.46" r="2.12"/><circle class="cls-1" cx="60.31" cy="145.46" r="2.12"/><circle class="cls-1" cx="71.73" cy="145.46" r="2.12"/><circle class="cls-1" cx="83.15" cy="145.46" r="2.12"/><circle class="cls-1" cx="94.56" cy="145.46" r="2.12"/><circle class="cls-1" cx="105.98" cy="145.46" r="2.12"/><circle class="cls-1" cx="14.64" cy="156.08" r="2.12"/><circle class="cls-1" cx="26.06" cy="156.08" r="2.12"/><circle class="cls-1" cx="37.48" cy="156.08" r="2.12"/><circle class="cls-1" cx="48.89" cy="156.08" r="2.12"/><circle class="cls-1" cx="60.31" cy="156.08" r="2.12"/><circle class="cls-1" cx="71.73" cy="156.08" r="2.12"/><circle class="cls-1" cx="83.15" cy="156.08" r="2.12"/><circle class="cls-1" cx="94.56" cy="156.08" r="2.12"/><circle class="cls-1" cx="105.98" cy="156.08" r="2.12"/><circle class="cls-1" cx="14.64" cy="166.7" r="2.12"/><circle class="cls-1" cx="26.06" cy="166.7" r="2.12"/><circle class="cls-1" cx="37.48" cy="166.7" r="2.12"/><circle class="cls-1" cx="48.89" cy="166.7" r="2.12"/><circle class="cls-1" cx="60.31" cy="166.7" r="2.12"/><circle class="cls-1" cx="71.73" cy="166.7" r="2.12"/><circle class="cls-1" cx="83.15" cy="166.7" r="2.12"/><circle class="cls-1" cx="94.56" cy="166.7" r="2.12"/><circle class="cls-1" cx="105.98" cy="166.7" r="2.12"/></svg>